<svg xmlns="http://www.w3.org/2000/svg" viewBox="0 0 39.05 114.95"><defs><style>.cls-1{fill:#f1f1f2;}.cls-2{fill:#fff;}.cls-3{fill:#2d2c2c;}.cls-4{fill:#4b4848;}.cls-5{fill:#d0d2d3;}.cls-6{fill:#e6e7e8;}.cls-7{fill:#ea168c;}.cls-8{fill:#cd181e;}.cls-9{font-size:4.85px;font-family:Lato-Regular, Lato;}</style></defs><title>Fairy Tale Ale</title><g id="Layer_2" data-name="Layer 2"><g id="Layer_1-2" data-name="Layer 1"><ellipse class="cls-1" cx="17.23" cy="4.71" rx="3.75" ry="4.71" transform="translate(-0.1 0.37) rotate(-1.22)"/><ellipse class="cls-2" cx="17.23" cy="4.71" rx="1.58" ry="4.71" transform="translate(-0.1 0.37) rotate(-1.22)"/><path class="cls-3" d="M21.58,56.17c.61-7.18,2.9-16.42,2.64-28.68S20.29,9.37,20.29,9.37l-3,.06-3,.06s-3.42,6-3.16,18.28,2.94,21.39,3.86,28.54c1.24,9.64.36,17.16-1.52,20.81a3.57,3.57,0,0,0,.36,3.81L14,81l4.88-.11,4.89-.1.05-.06A3.56,3.56,0,0,0,24,76.9C21.94,73.33,20.75,65.85,21.58,56.17Z"/><path class="cls-4" d="M20.1,56.2c.26-7.17,1.42-16.38,1.16-28.64S18.94,9.39,18.94,9.39l-1.61,0-1.62,0s-1.81,6-1.55,18.25S16,49.13,16.55,56.28c.77,9.64.36,17.16-.63,20.79a6.13,6.13,0,0,0,.23,3.81l0,.06,2.66-.06,2.67,0,0-.07A6.1,6.1,0,0,0,21.6,77C20.46,73.36,19.74,65.87,20.1,56.2Z"/><path class="cls-5" d="M26.13,89.31a20.34,20.34,0,0,1-2.4-8.53l-4.89.1L14,81a20.26,20.26,0,0,1-2,8.62,3.77,3.77,0,0,0,.57,4.24l0,.05s2.87,3.1,2.93,5.89a4.94,4.94,0,0,1-.61,2.45,2.93,2.93,0,0,0,.74,3.68l3.77-.08,3.78-.08a2.92,2.92,0,0,0,.58-3.7A5,5,0,0,1,23,99.63c-.06-2.79,2.68-6,2.68-6l0-.05A3.76,3.76,0,0,0,26.13,89.31Z"/><path class="cls-6" d="M23,89.37a34.4,34.4,0,0,1-1.41-8.54l-2.72,0-2.71.06a34.17,34.17,0,0,1-1,8.6,6.26,6.26,0,0,0,.36,4.25l0,0a16,16,0,0,1,1.69,5.91,8,8,0,0,1-.32,2.45,4.62,4.62,0,0,0,.45,3.68l2.09,0,2.1,0a4.66,4.66,0,0,0,.29-3.69,8.36,8.36,0,0,1-.42-2.44,16.05,16.05,0,0,1,1.43-6l0,0A6.31,6.31,0,0,0,23,89.37Z"/><path class="cls-5" d="M37.76,111l-6.43.14a12.84,12.84,0,0,1-5.77-1.09,4.81,4.81,0,0,1-2.41-4.31l-3.78.08-3.77.08a4.82,4.82,0,0,1-2.23,4.41,12.69,12.69,0,0,1-5.71,1.33l-6.44.14A1.62,1.62,0,0,0,1.29,115l18.27-.38,18.27-.39a1.62,1.62,0,0,0-.07-3.16Z"/><path class="cls-6" d="M15,114.66l4.61-.09,4.6-.1a5.87,5.87,0,0,1-1.09-1.19c-.84-1.2-1.43-4.2-1.5-7.49l-2.2,0-2.19,0c.07,3.29-.39,6.31-1.19,7.55A5.31,5.31,0,0,1,15,114.66Z"/><path class="cls-5" d="M20.22,7.09l-2.94.06-2.94.06a1,1,0,0,0-.88,1.16,1,1,0,0,0,.93,1.12l2.94-.06,2.94-.06a1.05,1.05,0,0,0,.88-1.16A1,1,0,0,0,20.22,7.09Z"/><ellipse class="cls-3" cx="18.84" cy="80.88" rx="15.59" ry="19.58" transform="translate(-1.71 0.42) rotate(-1.22)"/><ellipse class="cls-7" cx="18.84" cy="80.88" rx="14.8" ry="18.58" transform="translate(-1.71 0.42) rotate(-1.22)"/><ellipse class="cls-2" cx="18.84" cy="80.88" rx="12.78" ry="16.05" transform="translate(-1.71 0.42) rotate(-1.22)"/><ellipse class="cls-7" cx="18.84" cy="80.88" rx="6.52" ry="8.19" transform="translate(-1.71 0.42) rotate(-1.22)"/><polygon class="cls-8" points="9.2 82.3 8.3 82.92 8.45 81.64 7.69 80.75 8.71 80.54 9.14 79.37 9.62 80.52 10.64 80.69 9.93 81.61 10.13 82.88 9.2 82.3"/><polygon class="cls-8" points="28.54 81.89 27.64 82.51 27.79 81.23 27.03 80.34 28.05 80.13 28.48 78.96 28.96 80.11 29.99 80.28 29.27 81.2 29.47 82.47 28.54 81.89"/><path class="cls-2" d="M15.36,79.39l.06,2.81a.11.11,0,0,0,0,.1.18.18,0,0,0,.13,0h.34v.17l-1.29,0v-.17h.3a.17.17,0,0,0,.14-.06.24.24,0,0,0,0-.15l0-2.12a.14.14,0,0,0,0-.11.14.14,0,0,0-.11,0h-.39v-.15A2.27,2.27,0,0,0,15,79.6a1.13,1.13,0,0,0,.31-.21Z"/><path class="cls-2" d="M17.18,79.29a.71.71,0,0,1,.59.33,3,3,0,0,1,.09,2.49.71.71,0,0,1-.6.43.66.66,0,0,1-.58-.34,2.38,2.38,0,0,1-.31-1.26,2.55,2.55,0,0,1,.24-1.26A.67.67,0,0,1,17.18,79.29Zm0,.17c-.15,0-.27.1-.36.29a3.5,3.5,0,0,0-.11,1.18,3.24,3.24,0,0,0,.17,1.17c.09.19.22.29.37.28a.37.37,0,0,0,.35-.27,3.07,3.07,0,0,0,.13-1.18,3.35,3.35,0,0,0-.17-1.18C17.47,79.55,17.35,79.45,17.19,79.46Z"/><path class="cls-2" d="M19.22,79.25a.7.7,0,0,1,.59.33,2.25,2.25,0,0,1,.32,1.27,2.31,2.31,0,0,1-.23,1.22.73.73,0,0,1-.59.43.69.69,0,0,1-.58-.34,2.29,2.29,0,0,1-.32-1.26,2.42,2.42,0,0,1,.25-1.26A.65.65,0,0,1,19.22,79.25Zm0,.16a.43.43,0,0,0-.37.3,3.29,3.29,0,0,0-.1,1.18,3.16,3.16,0,0,0,.16,1.17.41.41,0,0,0,.37.28.38.38,0,0,0,.36-.28,3.31,3.31,0,0,0,.12-1.18,3.46,3.46,0,0,0-.16-1.18A.45.45,0,0,0,19.24,79.41Z"/><path class="cls-2" d="M21,79.21a.45.45,0,0,1,.39.22,1.14,1.14,0,0,1,.16.61,1,1,0,0,1-.14.61.44.44,0,0,1-.37.22.46.46,0,0,1-.38-.21,1.34,1.34,0,0,1,0-1.21A.45.45,0,0,1,21,79.21Zm0,.11q-.12,0-.18.15a1.37,1.37,0,0,0-.06.57,1.48,1.48,0,0,0,.08.58c.05.1.11.15.19.15s.13-.06.18-.16a1.28,1.28,0,0,0,.06-.55,1.51,1.51,0,0,0-.08-.59C21.1,79.37,21,79.32,21,79.32Zm1.65-.08h.16L21,82.4h-.16Zm0,1.53A.46.46,0,0,1,23,81a1.18,1.18,0,0,1,.16.62,1.07,1.07,0,0,1-.14.6.45.45,0,0,1-.37.23.44.44,0,0,1-.38-.22,1,1,0,0,1-.17-.6,1.22,1.22,0,0,1,.14-.61A.44.44,0,0,1,22.61,80.77Zm0,.11c-.08,0-.14.05-.19.15a1.78,1.78,0,0,0-.06.57,1.57,1.57,0,0,0,.09.57q.08.15.18.15c.08,0,.14,0,.19-.15a1.31,1.31,0,0,0,.06-.55,1.69,1.69,0,0,0-.08-.59C22.76,80.92,22.7,80.87,22.62,80.88Z"/><text class="cls-9" transform="translate(27.63 86.04) rotate(119.55) scale(0.8 1)">F</text><text class="cls-9" transform="matrix(-0.5, 0.62, -0.78, -0.62, 26.63, 87.82)">a</text><text class="cls-9" transform="matrix(-0.57, 0.55, -0.7, -0.72, 25.43, 89.28)">i</text><text class="cls-9" transform="translate(24.8 89.92) rotate(142.57) scale(0.8 1)">r</text><text class="cls-9" transform="matrix(-0.71, 0.37, -0.46, -0.89, 23.69, 90.81)">y</text><text class="cls-9" transform="translate(22.04 91.63) rotate(160.88) scale(0.8 1)"> </text><text class="cls-9" transform="matrix(-0.79, 0.13, -0.16, -0.99, 21.47, 91.91)">T</text><text class="cls-9" transform="matrix(-0.8, -0.01, 0.02, -1, 19.86, 92.22)">a</text><text class="cls-9" transform="translate(18.01 92.15) rotate(-169.24) scale(0.8 1)">l</text><text class="cls-9" transform="matrix(-0.75, -0.28, 0.35, -0.94, 17.14, 92.04)">e</text><text class="cls-9" transform="matrix(-0.7, -0.38, 0.48, -0.88, 15.37, 91.34)"> </text><text class="cls-9" transform="matrix(-0.63, -0.49, 0.61, -0.79, 14.79, 91.12)">A</text><text class="cls-9" transform="matrix(-0.54, -0.58, 0.73, -0.68, 12.85, 89.54)">l</text><text class="cls-9" transform="matrix(-0.47, -0.64, 0.81, -0.59, 12.2, 88.9)">e</text><text class="cls-9" transform="translate(10.43 76.26) rotate(-59.18) scale(0.8 1)">F</text><text class="cls-9" transform="translate(11.48 74.48) rotate(-49.83) scale(0.8 1)">a</text><text class="cls-9" transform="matrix(0.59, -0.54, 0.68, 0.74, 12.69, 73.09)">i</text><text class="cls-9" transform="matrix(0.65, -0.46, 0.58, 0.81, 13.35, 72.45)">r</text><text class="cls-9" transform="matrix(0.72, -0.34, 0.43, 0.9, 14.49, 71.59)">y</text><text class="cls-9" transform="translate(16.16 70.83) rotate(-17.16) scale(0.8 1)"> </text><text class="cls-9" transform="matrix(0.79, -0.1, 0.13, 0.99, 16.75, 70.57)">T</text><text class="cls-9" transform="matrix(0.8, 0.04, -0.05, 1, 18.37, 70.32)">a</text><text class="cls-9" transform="matrix(0.78, 0.18, -0.22, 0.98, 20.21, 70.45)">l</text><text class="cls-9" transform="translate(21.06 70.59) rotate(22.11) scale(0.8 1)">e</text><text class="cls-9" transform="matrix(0.69, 0.4, -0.51, 0.86, 22.83, 71.35)"> </text><text class="cls-9" transform="translate(23.4 71.59) rotate(39.46) scale(0.8 1)">A</text><text class="cls-9" transform="translate(25.3 73.23) rotate(48.41) scale(0.8 1)">l</text><text class="cls-9" transform="matrix(0.46, 0.65, -0.82, 0.57, 25.92, 73.87)">e</text></g></g></svg>