<svg xmlns="http://www.w3.org/2000/svg" viewBox="0 0 39.06 114.59"><defs><style>.cls-1{fill:#f1f1f2;}.cls-2{fill:#fff;}.cls-3{fill:#2d2c2c;}.cls-4{fill:#4b4848;}.cls-5{fill:#d0d2d3;}.cls-6{fill:#e6e7e8;}.cls-7{fill:#b6a58b;}.cls-8{fill:#cd181e;}.cls-9{font-size:4.85px;font-family:Lato-Regular, Lato;}</style></defs><title>GitHop</title><g id="Layer_2" data-name="Layer 2"><g id="Layer_1-2" data-name="Layer 1"><ellipse class="cls-1" cx="19.53" cy="4.71" rx="3.75" ry="4.71"/><ellipse class="cls-2" cx="19.53" cy="4.71" rx="1.58" ry="4.71"/><path class="cls-3" d="M22.78,56.25C23.55,49.09,26,39.9,26,27.64S22.49,9.43,22.49,9.43H16.57S13,15.37,13,27.64s2.49,21.45,3.25,28.61c1,9.66,0,17.17-1.95,20.78a3.54,3.54,0,0,0,.28,3.81l.05.06h9.76l.05-.06A3.54,3.54,0,0,0,24.74,77C22.78,73.42,21.75,65.91,22.78,56.25Z"/><path class="cls-4" d="M21.31,56.25c.41-7.16,1.77-16.35,1.77-28.61S21.14,9.43,21.14,9.43H17.92S16,15.37,16,27.64s1.36,21.45,1.77,28.61c.57,9.66,0,17.17-1.06,20.78a6.08,6.08,0,0,0,.15,3.81l0,.06h5.32l0-.06A6.08,6.08,0,0,0,22.37,77C21.31,73.42,20.74,65.91,21.31,56.25Z"/><path class="cls-5" d="M26.63,89.48a20.4,20.4,0,0,1-2.22-8.58H14.65a20.4,20.4,0,0,1-2.22,8.58,3.75,3.75,0,0,0,.47,4.25l0,0s2.81,3.16,2.81,6a5,5,0,0,1-.66,2.44,2.91,2.91,0,0,0,.66,3.69H23.3a2.91,2.91,0,0,0,.66-3.69,5,5,0,0,1-.66-2.44c0-2.79,2.81-6,2.81-6l.05,0A3.75,3.75,0,0,0,26.63,89.48Z"/><path class="cls-6" d="M23.48,89.48a34.36,34.36,0,0,1-1.24-8.58H16.82a34.36,34.36,0,0,1-1.24,8.58,6.29,6.29,0,0,0,.27,4.25l0,0a16.06,16.06,0,0,1,1.56,6,8.49,8.49,0,0,1-.36,2.44,4.63,4.63,0,0,0,.36,3.69h4.2a4.63,4.63,0,0,0,.36-3.69,8.49,8.49,0,0,1-.36-2.44,16.06,16.06,0,0,1,1.56-6l0,0A6.29,6.29,0,0,0,23.48,89.48Z"/><path class="cls-5" d="M37.8,111.43H31.37a12.66,12.66,0,0,1-5.74-1.21,4.8,4.8,0,0,1-2.33-4.36H15.76a4.8,4.8,0,0,1-2.33,4.36,12.66,12.66,0,0,1-5.74,1.21H1.26a1.62,1.62,0,0,0,0,3.16H37.8a1.62,1.62,0,0,0,0-3.16Z"/><path class="cls-6" d="M14.92,114.59h9.22a5.84,5.84,0,0,1-1.07-1.21c-.82-1.22-1.35-4.23-1.35-7.52H17.34c0,3.29-.53,6.3-1.35,7.52A5.84,5.84,0,0,1,14.92,114.59Z"/><path class="cls-5" d="M22.47,7.15H16.59a1,1,0,0,0-.91,1.14,1,1,0,0,0,.91,1.14h5.88a1,1,0,0,0,.91-1.14A1,1,0,0,0,22.47,7.15Z"/><ellipse class="cls-3" cx="19.53" cy="80.9" rx="15.59" ry="19.58"/><ellipse class="cls-7" cx="19.53" cy="80.9" rx="14.8" ry="18.58"/><ellipse class="cls-2" cx="19.53" cy="80.9" rx="12.78" ry="16.05"/><ellipse class="cls-7" cx="19.53" cy="80.9" rx="6.52" ry="8.19"/><polygon class="cls-8" points="9.86 82.11 8.94 82.72 9.12 81.44 8.38 80.53 9.4 80.34 9.86 79.18 10.31 80.34 11.34 80.53 10.6 81.44 10.77 82.72 9.86 82.11"/><polygon class="cls-8" points="29.2 82.11 28.29 82.72 28.46 81.44 27.72 80.53 28.75 80.34 29.2 79.18 29.66 80.34 30.68 80.53 29.94 81.44 30.12 82.72 29.2 82.11"/><path class="cls-2" d="M16.08,79.33v2.82a.12.12,0,0,0,0,.09.17.17,0,0,0,.13.05h.35v.17H15.3v-.17h.3a.17.17,0,0,0,.13-.05.25.25,0,0,0,0-.15V80a.21.21,0,0,0,0-.11.15.15,0,0,0-.11,0h-.4v-.16a2,2,0,0,0,.46-.12.88.88,0,0,0,.3-.2Z"/><path class="cls-2" d="M17.9,79.28a.67.67,0,0,1,.58.34,2.22,2.22,0,0,1,.29,1.28,2.35,2.35,0,0,1-.25,1.21.71.71,0,0,1-.61.41.66.66,0,0,1-.57-.35,2.3,2.3,0,0,1-.29-1.26,2.4,2.4,0,0,1,.28-1.26A.63.63,0,0,1,17.9,79.28Zm0,.16a.4.4,0,0,0-.37.28,3.37,3.37,0,0,0-.13,1.19,3.06,3.06,0,0,0,.14,1.17c.09.19.21.29.36.29a.39.39,0,0,0,.36-.27,3.17,3.17,0,0,0,.15-1.18,3.09,3.09,0,0,0-.14-1.18A.42.42,0,0,0,17.91,79.44Z"/><path class="cls-2" d="M19.94,79.28a.69.69,0,0,1,.59.34,2.31,2.31,0,0,1,.29,1.28,2.34,2.34,0,0,1-.26,1.21.7.7,0,0,1-.6.41.65.65,0,0,1-.57-.35,2.22,2.22,0,0,1-.29-1.26,2.51,2.51,0,0,1,.27-1.26A.64.64,0,0,1,19.94,79.28Zm0,.16a.41.41,0,0,0-.37.28,3.64,3.64,0,0,0-.13,1.19,3.28,3.28,0,0,0,.14,1.17.42.42,0,0,0,.37.29.41.41,0,0,0,.36-.27,3.17,3.17,0,0,0,.15-1.18,3.31,3.31,0,0,0-.14-1.18C20.23,79.54,20.11,79.44,20,79.44Z"/><path class="cls-2" d="M21.67,79.28a.45.45,0,0,1,.39.22,1.19,1.19,0,0,1,.14.62,1.07,1.07,0,0,1-.15.6.44.44,0,0,1-.38.21.43.43,0,0,1-.37-.22,1,1,0,0,1-.15-.6,1.08,1.08,0,0,1,.15-.61A.43.43,0,0,1,21.67,79.28Zm0,.1c-.08,0-.14.05-.19.15a1.47,1.47,0,0,0-.07.57,1.57,1.57,0,0,0,.07.58q.07.15.18.15c.08,0,.14,0,.19-.15a1.38,1.38,0,0,0,.08-.55,1.51,1.51,0,0,0-.08-.59C21.82,79.43,21.76,79.38,21.68,79.38Zm1.65,0h.16l-1.83,3.13h-.15Zm0,1.54a.44.44,0,0,1,.38.22,1.09,1.09,0,0,1,.15.62,1.07,1.07,0,0,1-.15.6.46.46,0,0,1-.38.21.44.44,0,0,1-.38-.22,1.06,1.06,0,0,1-.15-.61,1.09,1.09,0,0,1,.15-.6A.46.46,0,0,1,23.3,80.87Zm0,.1a.21.21,0,0,0-.18.15,1.46,1.46,0,0,0-.08.57,1.82,1.82,0,0,0,.07.58c.05.1.11.15.19.15a.23.23,0,0,0,.19-.15,1.42,1.42,0,0,0,.07-.55,1.56,1.56,0,0,0-.07-.59C23.44,81,23.38,81,23.3,81Z"/><text class="cls-9" transform="matrix(-0.7, 0.39, -0.48, -0.87, 24.91, 90.47)">G</text><text class="cls-9" transform="matrix(-0.76, 0.24, -0.3, -0.96, 22.52, 91.71)">i</text><text class="cls-9" transform="translate(21.69 91.99) rotate(170.48) scale(0.8 1)">t</text><text class="cls-9" transform="translate(20.46 92.31) rotate(-175.44) scale(0.8 1)">H</text><text class="cls-9" transform="translate(17.77 92.07) rotate(-159.31) scale(0.8 1)">o</text><text class="cls-9" transform="translate(15.91 91.38) rotate(-146.67) scale(0.8 1)">p</text><text class="cls-9" transform="translate(13.72 72.69) rotate(-34.3) scale(0.8 1)">G</text><text class="cls-9" transform="matrix(0.73, -0.31, 0.39, 0.92, 15.99, 71.23)">i</text><text class="cls-9" transform="translate(16.79 70.87) rotate(-15.52) scale(0.8 1)">t</text><text class="cls-9" transform="translate(17.98 70.42) rotate(-1.48) scale(0.8 1)">H</text><text class="cls-9" transform="matrix(0.77, 0.2, -0.26, 0.97, 20.68, 70.38)">o</text><text class="cls-9" transform="translate(22.59 70.87) rotate(27.98) scale(0.8 1)">p</text></g></g></svg>