<?xml version="1.0" encoding="utf-8"?>
<!-- Generator: Adobe Illustrator 22.1.0, SVG Export Plug-In . SVG Version: 6.00 Build 0)  -->
<svg version="1.1" id="Layer_1" xmlns="http://www.w3.org/2000/svg" xmlns:xlink="http://www.w3.org/1999/xlink" x="0px" y="0px"
	 viewBox="0 0 1366 768" style="enable-background:new 0 0 1366 768;" xml:space="preserve">
<style type="text/css">
	.st0{fill:#FFFFFF;}
	.st1{fill:#F1CC5E;}
	.st2{fill:#E5E7EA;}
	.st3{fill:#F7EFBE;}
	.st4{fill:#645E72;}
	.st5{opacity:0.1;fill:#3F371D;}
	.st6{fill:none;stroke:#FFFFFF;stroke-miterlimit:10;}
</style>
<path class="st0" d="M789.2,348.2h-88.6c-2.1,0-3.8,1.7-3.8,3.8v38.9c0,38.5,21.9,89,21.4,106.7c-0.5,16.3-13.6,20.7-15.7,37.8
	c-0.3,2.6,1.7,4.9,4.3,4.9h76.3c2.6,0,4.6-2.3,4.3-4.9c-2.1-17.2-15.2-21.5-15.7-37.8c-0.6-17.7,21.3-68.2,21.3-106.7v-38.9
	C793,349.9,791.3,348.2,789.2,348.2z"/>
<path id="Fill" class="st1" d="M789.2,352h-88.6c-2.1,0-3.8,1.6-3.8,3.6v37.6c0,37.2,21.9,85.8,21.4,103
	c-0.5,15.7-13.6,19.9-15.7,36.5c-0.3,2.5,1.7,4.7,4.3,4.7h76.3c2.6,0,4.6-2.2,4.3-4.7c-2.1-16.6-15.2-20.8-15.7-36.5
	c-0.6-17.1,21.3-65.8,21.3-103v-37.6C793,353.6,791.3,352,789.2,352z"/>
<path class="st2" d="M706,524.3c-1.7,3.4-3.1,7.3-3.5,12.2c-0.2,2,1.4,3.8,3.5,3.8H784c2.1,0,3.7-1.8,3.5-3.8
	c-0.5-4.9-1.8-8.8-3.5-12.2H706z"/>
<path class="st3" d="M744.9,390.9c-11.8,0-21.3,9.6-21.3,21.4s9.6,21.3,21.3,21.3c11.8,0,21.4-9.6,21.4-21.3
	S756.7,390.9,744.9,390.9z"/>
<path class="st4" d="M771.6,406.9h-53.4c-2.9,0-5.3,2.4-5.3,5.3c0,2.9,2.4,5.3,5.3,5.3h53.4c2.9,0,5.3-2.4,5.3-5.3
	C777,409.3,774.6,406.9,771.6,406.9z"/>
<path id="EmptyGlass" class="st5" d="M734.3,497.6c0.6-17.7-21.4-68.2-21.4-106.7v-38.9c0-2.1,1.7-3.8,3.8-3.8h-16
	c-2.1,0-3.8,1.7-3.8,3.8v38.9c0,38.5,21.9,89,21.4,106.7c-0.5,16.3-13.6,20.7-15.7,37.8c-0.3,2.6,1.7,4.9,4.3,4.9h16
	c-2.6,0-4.6-2.3-4.3-4.9C720.7,518.3,733.8,513.9,734.3,497.6z"/>
<rect id="rect_x5F_fill" x="756" y="431" class="st6" width="10" height="84"/>
</svg>
