<svg id="whole_tap" xmlns="http://www.w3.org/2000/svg" viewBox="0 0 132 308.37"><defs><style>.cls-1{fill:#f1f1f2;}.cls-2{fill:#fff;}.cls-3{fill:#2d2c2c;}.cls-4{fill:#4b4848;}.cls-5{fill:#d0d2d3;}.cls-6{fill:#e6e7e8;}.cls-7{fill:#f89c1c;}.cls-8{fill:#cd181e;}</style></defs><title>tap</title><g id="tap"><circle class="cls-1" cx="66" cy="12.69" r="12.69"/><ellipse class="cls-2" cx="66" cy="12.69" rx="5.33" ry="12.69"/><path class="cls-3" d="M694.42,380.83c2.59-19.27,11-44,11-77s-12-49-12-49h-20s-12,16-12,49,8.4,57.73,11,77c3.5,26,0,46.2-6.61,55.91a8,8,0,0,0,.94,10.25l.17.17h33l.17-.17a8,8,0,0,0,.94-10.25C694.42,427,690.92,406.83,694.42,380.83Z" transform="translate(-617.42 -229.45)"/><path class="cls-4" d="M689.42,380.83c1.41-19.27,6-44,6-77s-6.55-49-6.55-49H678s-6.54,16-6.54,49,4.58,57.73,6,77c1.91,26,0,46.2-3.61,55.91a13.31,13.31,0,0,0,.52,10.25l.09.17h18l.09-.17a13.26,13.26,0,0,0,.51-10.25C689.42,427,687.51,406.83,689.42,380.83Z" transform="translate(-617.42 -229.45)"/><path class="cls-5" d="M707.43,470.24a45.81,45.81,0,0,1-7.51-23.08h-33a45.81,45.81,0,0,1-7.51,23.08A8.57,8.57,0,0,0,661,481.7l.16.12s9.49,8.51,9.49,16a11.41,11.41,0,0,1-2.24,6.58,6.8,6.8,0,0,0,2.24,9.92h25.5a6.79,6.79,0,0,0,2.23-9.92,11.41,11.41,0,0,1-2.23-6.58c0-7.5,9.49-16,9.49-16l.15-.12A8.57,8.57,0,0,0,707.43,470.24Z" transform="translate(-617.42 -229.45)"/><path class="cls-6" d="M696.76,470.24a75.09,75.09,0,0,1-4.17-23.08H674.25a75.09,75.09,0,0,1-4.17,23.08c-1.38,3.7-1,8.65.89,11.46l.09.12s5.27,8.51,5.27,16a17.94,17.94,0,0,1-1.24,6.58c-1.3,3.34-.75,8,1.24,9.92H690.5c2-2,2.55-6.58,1.24-9.92a18.15,18.15,0,0,1-1.24-6.58c0-7.5,5.28-16,5.28-16l.08-.12C697.78,478.89,698.13,473.94,696.76,470.24Z" transform="translate(-617.42 -229.45)"/><path class="cls-5" d="M745.17,529.33H723.42c-8.76,0-15.07-1.54-19.4-3.26a12.6,12.6,0,0,1-7.85-11.74h-25.5a12.61,12.61,0,0,1-7.85,11.74c-4.33,1.72-10.64,3.26-19.4,3.26H621.67a4.25,4.25,0,0,0,0,8.5h123.5a4.25,4.25,0,0,0,0-8.5Z" transform="translate(-617.42 -229.45)"/><path class="cls-6" d="M667.85,537.83H699a17.48,17.48,0,0,1-3.61-3.27c-2.77-3.28-4.55-11.37-4.55-20.23H676c0,8.86-1.78,16.95-4.56,20.23A17.17,17.17,0,0,1,667.85,537.83Z" transform="translate(-617.42 -229.45)"/><path class="cls-5" d="M693.36,248.7H673.48a3.07,3.07,0,0,0,0,6.13h19.88a3.07,3.07,0,0,0,0-6.13Z" transform="translate(-617.42 -229.45)"/></g><g id="logo"><circle class="cls-3" cx="683.42" cy="447.16" r="52.69" transform="translate(-385.03 898.58) rotate(-89.67)"/><circle class="cls-7" cx="66" cy="217.71" r="50"/><circle class="cls-2" cx="683.42" cy="447.16" r="43.19" transform="translate(-384.89 898.67) rotate(-89.69)"/><path class="cls-3" d="M650.11,430.58l2.14-3.4.37.23-.51.81a.44.44,0,0,0-.08.35.59.59,0,0,0,.26.3l5.79,3.63a.41.41,0,0,0,.37.07,1,1,0,0,0,.38-.41l.65-1a2.14,2.14,0,0,0,.3-1.69,4.45,4.45,0,0,0-1.43-1.95l.22-.35,2.72,1.94-3.84,6.12-.37-.24.37-.6a.76.76,0,0,0,.16-.5.62.62,0,0,0-.3-.36l-5.73-3.6a.44.44,0,0,0-.34-.07.49.49,0,0,0-.29.25l-.47.74Z" transform="translate(-617.42 -229.45)"/><path class="cls-3" d="M659.07,423.41a2.5,2.5,0,0,1,1.87-.77,3,3,0,0,1,2,.94,3.24,3.24,0,0,1,.86,1.31,2.53,2.53,0,0,1,0,1.39,2.59,2.59,0,0,1-.68,1.22,2.36,2.36,0,0,1-1.84.73,3.34,3.34,0,0,1-3-2.94A2.39,2.39,0,0,1,659.07,423.41Zm.3.29a1.27,1.27,0,0,0-.33,1.19,3.35,3.35,0,0,0,1.05,1.62,3.45,3.45,0,0,0,1.66,1,1.29,1.29,0,0,0,1.19-.35,1.33,1.33,0,0,0,.34-1.22,3.5,3.5,0,0,0-1.12-1.68,3.18,3.18,0,0,0-1.61-1A1.33,1.33,0,0,0,659.37,423.7Z" transform="translate(-617.42 -229.45)"/><path class="cls-3" d="M661.73,421.07l1.54-1.23,1.3,1.8a4.66,4.66,0,0,1-.35-1.79,1.35,1.35,0,0,1,.56-1.1,1,1,0,0,1,.74-.2,1,1,0,0,1,.64.44.85.85,0,0,1,.19.57.61.61,0,0,1-.24.43.57.57,0,0,1-.45.1.67.67,0,0,1-.41-.29.83.83,0,0,1-.14-.35.8.8,0,0,0,0-.2c0-.05-.08-.05-.14,0a.86.86,0,0,0-.28.54,2.65,2.65,0,0,0,.1,1.26,6,6,0,0,0,.72,1.59l.69.95a.36.36,0,0,0,.29.17.85.85,0,0,0,.45-.2l.56-.41.26.36-2.76,2-.26-.35.44-.32a.66.66,0,0,0,.27-.33.31.31,0,0,0,0-.3l-2-2.83a.9.9,0,0,0-.48-.38.62.62,0,0,0-.5.14l-.39.28Z" transform="translate(-617.42 -229.45)"/><path class="cls-3" d="M672.18,418.08l-3.54,1.72a2.85,2.85,0,0,0,1.19,1.38,1.62,1.62,0,0,0,1.41,0,2.09,2.09,0,0,0,1.09-2l.42,0a2.68,2.68,0,0,1-1.5,2.57,2.46,2.46,0,0,1-2,.09,2.84,2.84,0,0,1-1.57-1.5,3.08,3.08,0,0,1-.27-2.27,2.49,2.49,0,0,1,2.7-1.77,2.53,2.53,0,0,1,1.3.68A4.2,4.2,0,0,1,672.18,418.08Zm-3.72,1.34,2.14-1a.39.39,0,0,0,.23-.27.78.78,0,0,0-.11-.49,1.51,1.51,0,0,0-.84-.81,1.22,1.22,0,0,0-1,0,1.26,1.26,0,0,0-.7.94A2.72,2.72,0,0,0,668.46,419.42Z" transform="translate(-617.42 -229.45)"/><path class="cls-3" d="M672.32,414.85l1.52-.41a10,10,0,0,1,.39,1.12,3,3,0,0,1,.7-1.06,1.91,1.91,0,0,1,.91-.45,1.46,1.46,0,0,1,1,.11,2,2,0,0,1,.75.84,2.82,2.82,0,0,1,.67-1.1,1.8,1.8,0,0,1,1-.51,1.35,1.35,0,0,1,1.19.22,2.24,2.24,0,0,1,.76,1.39l.53,2.67a.38.38,0,0,0,.19.3.73.73,0,0,0,.5,0l.27-.05.09.43-2.71.53-.09-.43.27-.05a.82.82,0,0,0,.46-.21.42.42,0,0,0,.07-.37l-.52-2.68a1.37,1.37,0,0,0-.48-.87,1,1,0,0,0-.83-.18,1.27,1.27,0,0,0-.62.32,1.33,1.33,0,0,0-.35.65,2,2,0,0,0-.07.91l.45,2.32a.46.46,0,0,0,.2.33.6.6,0,0,0,.41,0l.37-.07.08.43-2.74.54-.09-.43.31-.06a.75.75,0,0,0,.42-.2.35.35,0,0,0,.08-.32l-.49-2.49a2,2,0,0,0-.5-1.09.9.9,0,0,0-.82-.2,1.17,1.17,0,0,0-.86.59,2.16,2.16,0,0,0-.19,1.46l.42,2.15c0,.17.09.28.18.32a.8.8,0,0,0,.5,0l.28-.06.08.43-2.71.54-.08-.43.4-.08a.45.45,0,0,0,.33-.19.38.38,0,0,0,.07-.31l-.7-3.53a.56.56,0,0,0-.23-.41,1,1,0,0,0-.64-.07Z" transform="translate(-617.42 -229.45)"/><path class="cls-3" d="M686.76,410.23l4,.57-.06.44-.68-.1a1,1,0,0,0-.59,0,.66.66,0,0,0-.18.46l-.94,6.5a.73.73,0,0,0,0,.5.8.8,0,0,0,.49.21l.76.1-.06.44-4-.57.06-.43.75.1a.75.75,0,0,0,.53,0,.78.78,0,0,0,.19-.49l.93-6.49c0-.25,0-.41,0-.48a1,1,0,0,0-.57-.22l-.68-.09Z" transform="translate(-617.42 -229.45)"/><path class="cls-3" d="M693,414.56a7.13,7.13,0,0,1-.24,1.17,2.75,2.75,0,0,1,1.1-.6,1.83,1.83,0,0,1,1,.05,2,2,0,0,1,.9.67,2.5,2.5,0,0,1,.47,1.23,3.43,3.43,0,0,1-.18,1.53,3,3,0,0,1-1.44,1.82,2,2,0,0,1-1.69.17,1.73,1.73,0,0,1-.8-.54,2.47,2.47,0,0,1-.45-1l-.7,2.1a.44.44,0,0,0,0,.39.63.63,0,0,0,.37.27l.38.13-.13.39-2.78-.93.13-.4.38.13a.69.69,0,0,0,.44,0A.34.34,0,0,0,690,421l1.84-5.48a.69.69,0,0,0,0-.6,1.23,1.23,0,0,0-.67-.42l.12-.38Zm1.44,1a1.33,1.33,0,0,0-1.22.24,3,3,0,0,0-1,1.55,2.9,2.9,0,0,0-.15,1.79,1.31,1.31,0,0,0,.85.88,1.09,1.09,0,0,0,1.06-.16,3.36,3.36,0,0,0,1-1.62,3.23,3.23,0,0,0,.21-1.85A1.16,1.16,0,0,0,694.43,415.6Z" transform="translate(-617.42 -229.45)"/><path class="cls-3" d="M696.9,419.83a3.18,3.18,0,0,0,0,1.63,1.76,1.76,0,0,0,.82.91,1.51,1.51,0,0,0,1,.24.88.88,0,0,0,.64-.44.72.72,0,0,0,.11-.44.79.79,0,0,0-.17-.41,6.89,6.89,0,0,0-.88-.8,4.8,4.8,0,0,1-.9-.94,1.37,1.37,0,0,1-.21-.73,1.46,1.46,0,0,1,.19-.74,1.74,1.74,0,0,1,.9-.76,1.8,1.8,0,0,1,1.58.18,2.18,2.18,0,0,1,.93,1.05l.54-.17.21.12-.84,1.78-.34-.2a2.45,2.45,0,0,0,0-1.38,1.64,1.64,0,0,0-.77-.86,1.27,1.27,0,0,0-.89-.19.83.83,0,0,0-.61.42.72.72,0,0,0,0,.64,2.57,2.57,0,0,0,.8.88,9.88,9.88,0,0,1,1,.87,1.53,1.53,0,0,1,.38.84,1.51,1.51,0,0,1-.21.9A1.58,1.58,0,0,1,699,423a2.14,2.14,0,0,1-1.51-.28,2.45,2.45,0,0,1-1-1.21l-.61.21-.27-.15,1-2Z" transform="translate(-617.42 -229.45)"/><path class="cls-3" d="M704.54,420.55l-2.38,2.75a1.48,1.48,0,0,0-.42,1,1.22,1.22,0,0,0,.42.85,1.43,1.43,0,0,0,1.19.32,1.92,1.92,0,0,0,1.22-.7l1.34-1.56a.48.48,0,0,0,.13-.46,1.39,1.39,0,0,0-.47-.64l.27-.31,1.52,1.19-2.94,3.41a.58.58,0,0,0-.18.47.67.67,0,0,0,.26.45l.26.23-.25.29-1.43-1.17.62-.89a4.18,4.18,0,0,1-1.32,0,1.86,1.86,0,0,1-1-.44,1.69,1.69,0,0,1-.62-1.19,2.23,2.23,0,0,1,.71-1.59l1.55-1.81a.55.55,0,0,0,.13-.53,1.65,1.65,0,0,0-.46-.57l.26-.31Z" transform="translate(-617.42 -229.45)"/><path class="cls-3" d="M709.11,424.65l.95,1.26a7.82,7.82,0,0,1-.88.78,3,3,0,0,1,1.25.25,1.88,1.88,0,0,1,.76.67,1.45,1.45,0,0,1,.27.95,1.92,1.92,0,0,1-.49,1,2.9,2.9,0,0,1,1.27.2,1.85,1.85,0,0,1,.84.7,1.36,1.36,0,0,1,.25,1.18,2.32,2.32,0,0,1-1,1.23l-2.27,1.51a.37.37,0,0,0-.21.29.71.71,0,0,0,.15.48l.15.23-.36.24-1.53-2.3.37-.25.15.23a.79.79,0,0,0,.37.35.43.43,0,0,0,.37-.08l2.28-1.5a1.43,1.43,0,0,0,.62-.77,1,1,0,0,0-.15-.84,1.18,1.18,0,0,0-.54-.45,1.33,1.33,0,0,0-.72-.08,2.17,2.17,0,0,0-.88.28l-2,1.31a.42.42,0,0,0-.22.3.57.57,0,0,0,.12.4l.21.31-.37.24-1.55-2.33.37-.25.17.27a.78.78,0,0,0,.35.3.35.35,0,0,0,.33,0l2.11-1.4a1.86,1.86,0,0,0,.81-.88.91.91,0,0,0-.12-.84,1.14,1.14,0,0,0-.87-.56,2.22,2.22,0,0,0-1.43.37l-1.83,1.21c-.14.1-.21.19-.22.29a.78.78,0,0,0,.17.48l.15.23-.36.24-1.53-2.3.36-.24.23.34a.56.56,0,0,0,.3.24.45.45,0,0,0,.32-.06l3-2a.63.63,0,0,0,.29-.37,1.13,1.13,0,0,0-.18-.61Z" transform="translate(-617.42 -229.45)"/><path class="cls-3" d="M657.34,458.94l2.39,3.83a3.12,3.12,0,0,1,.58,2,1.84,1.84,0,0,1-.87,1.38,1.73,1.73,0,0,1-1.32.24,3.34,3.34,0,0,1-1.48-.83,3.85,3.85,0,0,1,.28,2,1.78,1.78,0,0,1-.86,1.26,2,2,0,0,1-1.16.31,2.64,2.64,0,0,1-1.33-.54,4.69,4.69,0,0,1-1.26-1.38L650,463.52l.37-.23.38.61a.84.84,0,0,0,.34.34.28.28,0,0,0,.28,0l5.89-3.67a.49.49,0,0,0,.24-.32.63.63,0,0,0-.12-.43l-.4-.65ZM655,463.47l-2.83,1.77a.45.45,0,0,0-.23.3.82.82,0,0,0,.17.48l.55.89a2.23,2.23,0,0,0,1.21,1.07,2.23,2.23,0,0,0,2.39-1.52,1.93,1.93,0,0,0-.31-1.48Zm.38-.23.86,1.39a1.66,1.66,0,0,0,1,.79,2,2,0,0,0,1.47-.39,1.86,1.86,0,0,0,.72-.7,1.21,1.21,0,0,0,.1-.8,4.16,4.16,0,0,0-.61-1.28,2.17,2.17,0,0,0-.55-.69.38.38,0,0,0-.39.05Z" transform="translate(-617.42 -229.45)"/><path class="cls-3" d="M660.84,473.12l-2.77-2.79a2.88,2.88,0,0,0-.93,1.58,1.64,1.64,0,0,0,.49,1.32,2.1,2.1,0,0,0,2.23.39l.15.38a2.68,2.68,0,0,1-2.92-.58,2.46,2.46,0,0,1-.74-1.88,2.82,2.82,0,0,1,.92-2,3.06,3.06,0,0,1,2.05-1,2.34,2.34,0,0,1,1.87.71,2.31,2.31,0,0,1,.68,1.27,2.43,2.43,0,0,1-.22,1.45A4.08,4.08,0,0,1,660.84,473.12ZM658.36,470l1.68,1.69a.4.4,0,0,0,.33.13.75.75,0,0,0,.43-.26,1.62,1.62,0,0,0,.5-1.06,1.24,1.24,0,0,0-1.46-1.34A2.67,2.67,0,0,0,658.36,470Z" transform="translate(-617.42 -229.45)"/><path class="cls-3" d="M661.9,474.76a3.2,3.2,0,0,0-.12,1.63,1.8,1.8,0,0,0,.73,1,1.52,1.52,0,0,0,1,.34.87.87,0,0,0,.68-.38.72.72,0,0,0,0-.85,7.57,7.57,0,0,0-.79-.89,4.48,4.48,0,0,1-.8-1,1.31,1.31,0,0,1-.14-.75,1.46,1.46,0,0,1,.26-.72,1.7,1.7,0,0,1,1-.66,1.81,1.81,0,0,1,1.56.33,2.2,2.2,0,0,1,.82,1.13l.55-.11.2.14-1,1.69-.32-.23a2.45,2.45,0,0,0,.12-1.38,1.67,1.67,0,0,0-.68-.93,1.36,1.36,0,0,0-.87-.28.86.86,0,0,0-.64.36.69.69,0,0,0-.1.64,2.61,2.61,0,0,0,.71.95,9.53,9.53,0,0,1,.88,1,1.63,1.63,0,0,1,.3.87,1.51,1.51,0,0,1-.3.88,1.56,1.56,0,0,1-1.18.68,2.12,2.12,0,0,1-1.47-.42,2.4,2.4,0,0,1-.93-1.32l-.64.16-.25-.18,1.16-1.85Z" transform="translate(-617.42 -229.45)"/><path class="cls-3" d="M670.06,473.24l.35.17-1,2,1.59.79-.23.48-1.6-.78-1.55,3.15a1.06,1.06,0,0,0-.12.73.71.71,0,0,0,.39.46.81.81,0,0,0,.77,0,2.3,2.3,0,0,0,.84-1l.35.17a2.53,2.53,0,0,1-1.17,1.24,1.51,1.51,0,0,1-1.31-.05,1.45,1.45,0,0,1-.79-.81,1.28,1.28,0,0,1,.09-1l1.63-3.31-.86-.42.18-.37a1.5,1.5,0,0,0,1.13-.05A3.05,3.05,0,0,0,670.06,473.24Z" transform="translate(-617.42 -229.45)"/><path class="cls-3" d="M675.57,474.49l3.91.83-.09.43-.67-.15a.93.93,0,0,0-.59,0c-.09,0-.16.2-.22.44l-1.35,6.43c-.06.25-.06.42,0,.5a.71.71,0,0,0,.47.24l.75.15-.09.43-3.91-.82.09-.43.74.16a.8.8,0,0,0,.53,0,.76.76,0,0,0,.22-.48l1.36-6.42c0-.24,0-.4,0-.47a1,1,0,0,0-.56-.26l-.67-.14Z" transform="translate(-617.42 -229.45)"/><path class="cls-3" d="M679.46,478.61l1.82-.07a7.92,7.92,0,0,1,.14,1.21,2.76,2.76,0,0,1,.89-.88,2.19,2.19,0,0,1,1.14-.27,1.91,1.91,0,0,1,.91.23,1.54,1.54,0,0,1,.58.69,2.36,2.36,0,0,1,.2,1l-.06,2.68a.56.56,0,0,0,.13.42.62.62,0,0,0,.44.14H686v.44l-2.89-.07v-.44h.27a.84.84,0,0,0,.54-.11.42.42,0,0,0,.16-.37l0-2.35a2,2,0,0,0-.21-1.14,1.09,1.09,0,0,0-1-.55,1.43,1.43,0,0,0-1.12.51,2.11,2.11,0,0,0-.47,1.38l0,2a.52.52,0,0,0,.13.42.67.67,0,0,0,.45.14h.38v.44l-2.9-.07v-.44h.39a.67.67,0,0,0,.43-.1.35.35,0,0,0,.16-.29l.08-3.55a.77.77,0,0,0-.18-.54.83.83,0,0,0-.55-.19h-.28Z" transform="translate(-617.42 -229.45)"/><path class="cls-3" d="M688.88,475.21l6.69-2.18,1.17,3.07-.38.12q-1.27-2.62-2.88-2.1a.71.71,0,0,0-.41.26.54.54,0,0,0,0,.4l2.14,6.59a.38.38,0,0,0,.21.26.63.63,0,0,0,.42,0l.83-.27.13.42L693,483l-.14-.42.95-.31a.47.47,0,0,0,.26-.18.36.36,0,0,0,0-.29l-2.16-6.68a.45.45,0,0,0-.24-.28.63.63,0,0,0-.44,0,1.69,1.69,0,0,0-1.11,1.2,5,5,0,0,0,0,2.19l-.41.13Z" transform="translate(-617.42 -229.45)"/><path class="cls-3" d="M699.22,474.26a2.49,2.49,0,0,1,2-.25,3,3,0,0,1,1.71,1.44,3.19,3.19,0,0,1,.49,1.5,2.54,2.54,0,0,1-.32,1.35,2.61,2.61,0,0,1-1,1,2.34,2.34,0,0,1-2,.21,3,3,0,0,1-1.69-1.43,3,3,0,0,1-.43-2.19A2.41,2.41,0,0,1,699.22,474.26Zm.21.36a1.26,1.26,0,0,0-.63,1.06,3.32,3.32,0,0,0,.58,1.83,3.49,3.49,0,0,0,1.33,1.44,1.24,1.24,0,0,0,1.24,0,1.3,1.3,0,0,0,.65-1.08,3.55,3.55,0,0,0-.63-1.92,3.13,3.13,0,0,0-1.29-1.37A1.32,1.32,0,0,0,699.43,474.62Z" transform="translate(-617.42 -229.45)"/><path class="cls-3" d="M702.06,473l1.74-1.66.28.29-.23.22a.57.57,0,0,0-.19.28.26.26,0,0,0,.06.21.72.72,0,0,0,.24.16l3,1.39L705.73,471a1.36,1.36,0,0,0-.69-.15,1.12,1.12,0,0,0-.51.33l-.28-.3,1.92-1.83.28.29-.16.16a.74.74,0,0,0-.25.35.22.22,0,0,0,.07.23.78.78,0,0,0,.2.14l3.05,1.39-1.19-2.68a1.38,1.38,0,0,0-.25-.41.36.36,0,0,0-.32-.11,1.16,1.16,0,0,0-.5.31l-.28-.29,1.55-1.48.28.29a1.17,1.17,0,0,0-.27.6,1.59,1.59,0,0,0,.14.65l1.92,4.3-.25.24-3.77-1.71,1.66,3.73-.25.23-4.78-2.14a.69.69,0,0,0-.36-.08.91.91,0,0,0-.35.21Z" transform="translate(-617.42 -229.45)"/><path class="cls-3" d="M708.54,466.5l.86-1.61a8.34,8.34,0,0,1,1.12.49,2.68,2.68,0,0,1-.31-1.21,2.22,2.22,0,0,1,.34-1.12,1.79,1.79,0,0,1,.67-.67,1.48,1.48,0,0,1,.88-.14,2.27,2.27,0,0,1,1,.35l2.27,1.41a.61.61,0,0,0,.44.11.68.68,0,0,0,.34-.32l.2-.33.38.23-1.52,2.46-.38-.23.15-.23a1,1,0,0,0,.18-.53.46.46,0,0,0-.24-.32l-2-1.24a2.15,2.15,0,0,0-1.09-.39,1.1,1.1,0,0,0-1,.57,1.41,1.41,0,0,0-.13,1.22,2.16,2.16,0,0,0,.95,1.1l1.73,1.07a.57.57,0,0,0,.44.11.68.68,0,0,0,.34-.32l.2-.33.38.24-1.53,2.47-.38-.23.2-.33a.6.6,0,0,0,.13-.43.34.34,0,0,0-.17-.28l-3-1.87a.7.7,0,0,0-.56-.11.73.73,0,0,0-.44.37l-.15.24Z" transform="translate(-617.42 -229.45)"/><circle class="cls-7" cx="683.42" cy="447.16" r="22.03" transform="translate(-680.59 -113.37) rotate(-9.28)"/><polygon class="cls-8" points="33.31 220.97 30.22 222.59 30.81 219.15 28.31 216.72 31.77 216.21 33.31 213.08 34.86 216.21 38.31 216.72 35.81 219.15 36.4 222.59 33.31 220.97"/><polygon class="cls-8" points="98.69 220.97 95.6 222.59 96.19 219.15 93.69 216.72 97.14 216.21 98.69 213.08 100.23 216.21 103.69 216.72 101.19 219.15 101.78 222.59 98.69 220.97"/><path class="cls-2" d="M671.75,443v7.57a.31.31,0,0,0,.12.26.75.75,0,0,0,.43.13h1.18v.45h-4.37v-.45h1a.65.65,0,0,0,.47-.15.54.54,0,0,0,.15-.4v-5.72a.39.39,0,0,0-.14-.3.52.52,0,0,0-.36-.12H668.9v-.42a8.23,8.23,0,0,0,1.53-.32,3.91,3.91,0,0,0,1-.53Z" transform="translate(-617.42 -229.45)"/><path class="cls-2" d="M677.91,442.79a2.5,2.5,0,0,1,2,.92,5.19,5.19,0,0,1,1,3.44,5.35,5.35,0,0,1-.85,3.26,2.51,2.51,0,0,1-2,1.12,2.42,2.42,0,0,1-1.94-.94,5.31,5.31,0,0,1-1-3.41,5.6,5.6,0,0,1,.92-3.38A2.29,2.29,0,0,1,677.91,442.79Zm0,.44a1.37,1.37,0,0,0-1.25.76,7.35,7.35,0,0,0-.45,3.19,7,7,0,0,0,.46,3.14,1.4,1.4,0,0,0,1.25.79,1.33,1.33,0,0,0,1.21-.73,6.81,6.81,0,0,0,.5-3.16,7.08,7.08,0,0,0-.47-3.19A1.41,1.41,0,0,0,678,443.23Z" transform="translate(-617.42 -229.45)"/><path class="cls-2" d="M684.82,442.79a2.52,2.52,0,0,1,2,.92,5.19,5.19,0,0,1,1,3.44,5.28,5.28,0,0,1-.85,3.26,2.48,2.48,0,0,1-2,1.12,2.4,2.4,0,0,1-1.94-.94,5.25,5.25,0,0,1-1-3.41,5.6,5.6,0,0,1,.92-3.38A2.29,2.29,0,0,1,684.82,442.79Zm0,.44a1.39,1.39,0,0,0-1.25.76,7.35,7.35,0,0,0-.45,3.19,7,7,0,0,0,.47,3.14,1.39,1.39,0,0,0,1.25.79,1.34,1.34,0,0,0,1.21-.73,7,7,0,0,0,.5-3.16,7.23,7.23,0,0,0-.47-3.19A1.44,1.44,0,0,0,684.85,443.23Z" transform="translate(-617.42 -229.45)"/><path class="cls-2" d="M690.66,442.79a1.59,1.59,0,0,1,1.29.6,2.48,2.48,0,0,1,.5,1.66,2.43,2.43,0,0,1-.5,1.62,1.67,1.67,0,0,1-1.29.58,1.58,1.58,0,0,1-1.26-.59,2.86,2.86,0,0,1,0-3.26A1.57,1.57,0,0,1,690.66,442.79Zm0,.29a.71.71,0,0,0-.63.4,3.15,3.15,0,0,0-.25,1.52,3.48,3.48,0,0,0,.24,1.56.72.72,0,0,0,.62.42.74.74,0,0,0,.64-.42,3,3,0,0,0,.25-1.48,3.57,3.57,0,0,0-.24-1.59A.7.7,0,0,0,690.68,443.08Zm5.59-.13h.53l-6.18,8.41h-.52Zm-.12,4.12a1.59,1.59,0,0,1,1.29.6,2.53,2.53,0,0,1,.5,1.66,2.43,2.43,0,0,1-.5,1.62,1.69,1.69,0,0,1-2.56,0,2.88,2.88,0,0,1,0-3.26A1.6,1.6,0,0,1,696.15,447.07Zm0,.29a.71.71,0,0,0-.63.4,3.17,3.17,0,0,0-.25,1.52,3.48,3.48,0,0,0,.24,1.56.72.72,0,0,0,.62.41.73.73,0,0,0,.64-.41,3.11,3.11,0,0,0,.25-1.47,3.59,3.59,0,0,0-.24-1.6A.72.72,0,0,0,696.17,447.36Z" transform="translate(-617.42 -229.45)"/></g></svg>